<svg width="45" height="44" viewBox="0 0 45 44" fill="none" xmlns="http://www.w3.org/2000/svg">
<path d="M14.5321 8.80415C16.0843 9.17256 17.0083 10.3201 17.2861 12.2407C17.5217 13.8593 16.8332 15.1819 15.2085 16.2026C13.753 17.1207 12.2431 16.8911 10.6788 15.5202C9.66419 14.6384 9.23538 13.5815 9.39241 12.3494C9.44072 11.5582 9.71854 10.8334 10.2198 10.1631C11.2526 8.82227 12.69 8.3693 14.52 8.80415H14.5321ZM13.0222 14.5418C13.8859 14.6384 14.5502 14.3787 15.0213 13.7506C15.7944 12.8386 15.6796 11.993 14.6831 11.22C13.9885 10.6825 13.3061 10.5315 12.6477 10.767C11.8143 11.063 11.3975 11.6065 11.4036 12.3917C11.4036 13.5392 11.9411 14.2579 13.0282 14.5418H13.0222Z" fill="#2D2D2D"/>
<path d="M15.4376 19.3735C16.3616 20.1405 16.8267 21.282 16.8327 22.81C16.8509 26.2465 16.8388 29.4535 16.7965 32.4371C16.6636 33.0954 16.3918 33.6208 15.963 34.0255C15.0148 35.2455 13.7948 35.6864 12.3031 35.3481C10.4851 34.9556 9.52485 34.0496 9.43425 32.6303C9.18663 28.8556 9.18663 25.0809 9.43425 21.3061C9.50673 20.1646 10.316 19.3131 11.8501 18.7393C13.1426 18.2561 14.3384 18.4736 15.4376 19.3795V19.3735ZM14.6041 32.3586C14.8699 31.7606 14.9605 31.0419 14.8699 30.2085C14.888 27.3095 14.8759 24.6037 14.8336 22.0913C14.8155 20.9558 14.1753 20.4364 12.907 20.5451C11.8984 20.6297 11.3971 21.0827 11.3971 21.904C11.3971 25.2741 11.3971 28.6503 11.3971 32.0203C11.3971 32.8659 11.8984 33.3188 12.907 33.3792C13.6559 33.4638 14.2236 33.1256 14.6041 32.3586Z" fill="#2D2D2D"/>
<path d="M32.1972 19.9774C34.6251 21.8436 35.8451 24.2957 35.8572 27.3396C35.9176 29.387 35.8693 31.1506 35.7062 32.6243C35.5492 34.2731 34.4802 35.2152 32.4992 35.4568C31.3759 35.5595 30.4699 35.2817 29.7814 34.6234C28.8453 34.0073 28.3561 33.0349 28.3077 31.7183C28.3259 29.9789 28.3138 28.3784 28.2715 26.9229C28.2413 25.7512 27.6615 25.6002 26.5321 26.4699C26.2483 26.6873 26.1879 28.0825 26.3449 30.6614C26.4657 32.6847 25.753 34.1825 24.1948 35.1548C23.156 35.8011 21.9239 35.7044 20.4925 34.8529C19.3571 34.1764 18.7954 33.1376 18.7954 31.7183C18.7954 30.1058 18.7954 28.4992 18.7954 26.8867C18.7954 25.0989 19.3088 23.4985 20.3415 22.0912C21.9179 20.0197 23.8203 18.848 26.0429 18.5822C28.1568 18.2319 30.2102 18.697 32.1972 19.9774ZM30.9893 33.1135C31.9255 33.6389 32.7831 33.5121 33.5561 32.733C33.7675 31.4284 33.8279 29.9306 33.7434 28.2395C33.5984 25.7029 33.1575 23.9816 32.4207 23.0696C30.8866 21.1491 28.8634 20.3096 26.3449 20.5391C23.8505 21.0947 22.1413 22.5019 21.2112 24.7668C20.8791 26.4156 20.7764 28.3241 20.9093 30.5044C21.018 32.1049 21.169 32.9625 21.3622 33.0712C22.4252 33.6812 23.2224 33.6691 23.7418 33.0349C24.1102 32.588 24.2733 31.8452 24.231 30.8063C24.1284 28.3422 24.1827 26.8323 24.382 26.2767C24.8712 24.9238 25.6805 24.1688 26.7979 24.0118C27.5951 23.9031 28.2353 24.0179 28.7245 24.35C29.8358 25.1171 30.3552 26.3612 30.2706 28.0885C30.174 30.2205 30.2223 31.6338 30.4216 32.3162C30.5605 32.7269 30.7477 32.9866 30.9893 33.1074V33.1135Z" fill="#2D2D2D"/>
<path d="M37.9865 41.2018C44.4389 39.7495 43.153 30.812 43.043 25.9295C43.0115 24.5348 43.0068 23.1397 42.9618 21.7449C42.9068 20.0376 42.8161 18.3321 42.7187 16.6269C42.5909 14.3919 42.3993 12.2103 42.0456 9.99796C41.87 8.90105 41.6759 7.77593 41.1958 6.76431C38.878 1.88143 33.1125 2.30546 28.5737 2.15423C23.9508 2.00047 19.3187 1.94683 14.6934 2.06195C11.7224 2.1363 8.75695 2.00343 6.11705 3.39651C2.84649 5.12269 2.48478 8.83389 2.30287 12.1851C1.92395 19.1621 1.74669 26.5973 2.71712 33.5345C3.23466 37.2352 4.4706 40.7151 8.55655 41.5628C13.0344 42.4921 17.7144 42.178 22.2011 41.9243C26.1358 41.702 34.0506 41.4749 37.9865 41.2018Z" stroke="#2D2D2D" stroke-width="2.41583" stroke-miterlimit="1.5" stroke-linecap="round" stroke-linejoin="round"/>
</svg>
